<svg width="89" height="67" viewBox="0 0 89 67" fill="none" xmlns="http://www.w3.org/2000/svg">
<path id="Vector" d="M88.2462 11.4574C87.8179 12.15 87.3328 12.8057 86.7957 13.4176L35.2546 64.9394C34.99 65.3388 34.6307 65.6663 34.2089 65.893C33.7871 66.1196 33.3158 66.2382 32.8371 66.2382C32.3584 66.2382 31.8871 66.1196 31.4653 65.893C31.0435 65.6663 30.6842 65.3388 30.4196 64.9394C20.7496 54.969 11.0796 44.9825 1.40962 34.9798C1.04471 34.7056 0.751492 34.347 0.554995 33.9348C0.358499 33.5225 0.26455 33.0688 0.281175 32.6123C0.2978 32.1559 0.424498 31.7102 0.650462 31.3134C0.876425 30.9165 1.19493 30.5803 1.57883 30.3334L8.83132 23.7752C9.09169 23.4475 9.42259 23.1829 9.79931 23.001C10.176 22.8191 10.5889 22.7247 11.0071 22.7247C11.4253 22.7247 11.8382 22.8191 12.2149 23.001C12.5916 23.1829 12.9225 23.4475 13.1828 23.7752L30.3229 41.2476C32.1118 43.0626 33.4415 43.0868 35.1579 41.2476L75.1917 1.34181C75.4524 0.937219 75.8103 0.604517 76.2326 0.374136C76.6549 0.143755 77.1282 0.0230408 77.6092 0.0230408C78.0901 0.0230408 78.5635 0.143755 78.9858 0.374136C79.4081 0.604517 79.766 0.937219 80.0267 1.34181C82.2991 3.61661 84.5716 5.89141 86.7957 8.19041C87.3091 8.79256 87.7777 9.43154 88.1979 10.1022L88.2462 11.4574Z" fill="#8A33FD"/>
</svg>
