<svg width="31" height="34" viewBox="0 0 31 34" fill="none" xmlns="http://www.w3.org/2000/svg">
<rect width="31" height="34" fill="#EDEDED"/>
<g id="Product detail Page" clip-path="url(#clip0_0_1)">
<rect width="1440" height="3338" transform="translate(-864 -3036)" fill="white"/>
<g id="Need help section">
<rect id="Rectangle 36" x="-864" y="-429" width="1440" height="731" fill="#3C4242"/>
<g id="Frame 127">
<g id="Frame 126">
<g id="Group">
<path id="Vector" d="M145.762 28.6711C145.762 36.1289 139.652 42.239 132.194 42.239H5.56787C-1.88997 42.239 -8 36.1289 -8 28.6711V4.56784C-8 -2.89001 -1.88997 -9 5.56787 -9H132.194C139.652 -9 145.762 -2.89001 145.762 4.56784V28.6711Z" fill="#404040"/>
<g id="Group_2">
<path id="Vector_2" d="M0.670593 33.1189V0.142578L30.3223 16.159L0.670593 33.1189Z" fill="#5CA9B3"/>
<path id="Vector_3" d="M0.670593 0.142578L21.6514 21.1234L30.3223 16.159L0.670593 0.142578Z" fill="#C8DB9B"/>
<path id="Vector_4" d="M21.4716 11.374L0.670532 33.1186L30.3222 16.1587L21.4716 11.374Z" fill="#AC5067"/>
<path id="Vector_5" d="M21.6517 21.1231L30.3225 16.1587L21.4719 11.374L16.7996 16.2711L21.6517 21.1231Z" fill="#F4A676"/>
</g>
</g>
</g>
</g>
</g>
</g>
<defs>
<clipPath id="clip0_0_1">
<rect width="1440" height="3338" fill="white" transform="translate(-864 -3036)"/>
</clipPath>
</defs>
</svg>
